# xmcd
#
# Track frame offsets:
#	150
#	15464
#	31948
#	49573
#	67546
#	83908
#	100143
#	118183
#	134515
#	152062
#	167940
#	189641
#	209226
#	225355
#	239590
#
# Disc length: 3502
#
# Revision: 8
# Processed by: cddbd v1.5.1PL0 Copyright (c) Steve Scherf et al.
# Submitted via: audiograbber 1.83.01
# Normalized: r7:DSETVAR1
#
DISCID=c50dac0f
DTITLE=Various Artist - Country Heat 2000
DYEAR=1999
DGENRE=Country
TTITLE0=Kenny Chesney - She's Got it All
TTITLE1=Jo Dee Messina - Lesson In Leavin'
TTITLE2=Lonestar - Everything's Changed
TTITLE3=Alan Jackson - I'll Go On Loving You
TTITLE4=Sherrie Austin - Never Been Kissed
TTITLE5=Sawyer Brown - Drive Me Wild
TTITLE6=Diamond Rio - You're Gone
TTITLE7=Mark Wills - Don't Laugh At Me
TTITLE8=Prairie Oyster - Canadian Sunrise
TTITLE9=Deana Carter - Absence of the Heart
TTITLE10=Steve Wariner - Holes In The Floor of Heaven
TTITLE11=Julian Austin - Back In Your Life
TTITLE12=Jim Witter - All My Life
TTITLE13=Randy Travis - The Hole
TTITLE14=Alabama - Alabama Jam
EXTD=Note proper spelling of PRAIRIE Oyster (there are 2 i's) The other version in the FreeDB database misspells it.
EXTT0=
EXTT1=
EXTT2=
EXTT3=
EXTT4=
EXTT5=
EXTT6=
EXTT7=
EXTT8=
EXTT9=
EXTT10=
EXTT11=
EXTT12=
EXTT13=
EXTT14=
PLAYORDER=
